<svg width="198" height="34" viewBox="0 0 198 34" fill="none" xmlns="http://www.w3.org/2000/svg">
<path fill-rule="evenodd" clip-rule="evenodd" d="M176.36 1.06C175.84 3.21 175.36 5.2 174.98 7.06L178.98 19.06L185 1.06H176.36ZM18.36 1.9C16.2188 0.90028 13.8717 0.420584 11.51 0.5C9.65601 0.464473 7.8115 0.773022 6.07 1.41C4.6452 1.9073 3.37143 2.76107 2.37 3.89C1.54135 4.81671 0.987294 5.95597 0.77 7.18C0.556951 8.8746 0.466716 10.5824 0.5 12.29V21.5C0.391694 23.8658 0.685875 26.2327 1.37 28.5C2.04215 30.1239 3.32372 31.4198 4.94 32.11C7.09267 33.0549 9.43055 33.5026 11.78 33.42C14.112 33.4938 16.4235 32.9633 18.49 31.88C20.0474 31.1162 21.2889 29.8322 22 28.25C22.6497 25.9936 22.9201 23.645 22.8 21.3V20.07H13.37V24.07C13.4471 25.1807 13.3355 26.2965 13.04 27.37C12.9109 27.6159 12.7092 27.8161 12.4622 27.9431C12.2153 28.0702 11.9351 28.118 11.66 28.08C11.3818 28.1195 11.0981 28.0738 10.8464 27.9488C10.5946 27.8239 10.3867 27.6255 10.25 27.38C9.97866 26.4046 9.87385 25.3903 9.94 24.38V9.68C9.87202 8.63005 9.97674 7.57605 10.25 6.56C10.46 6.08 10.95 5.84 11.73 5.84C11.9862 5.80274 12.2477 5.83831 12.4847 5.94264C12.7217 6.04697 12.9245 6.21586 13.07 6.43C13.343 7.40507 13.4445 8.42017 13.37 9.43V14.92H22.81V11.92C22.9353 9.71561 22.6609 7.50672 22 5.4C21.2654 3.83094 19.981 2.58568 18.39 1.9H18.36ZM58 1.08H48.58V32.7H63.72V26.37H58V1.08ZM75.39 1.08H66V32.7H81.12V26.37H75.39V1.08ZM27.92 1.01L23.11 32.7H32L35.06 7.86L36.75 21.5H34.81L34.21 26.8H37.4L38.14 32.72H47L41.56 1.01H27.92ZM84 9.5C83.7337 9.12019 83.3665 8.82233 82.94 8.64C82.4712 8.4459 81.9673 8.35058 81.46 8.36C80.9375 8.34785 80.4187 8.45025 79.94 8.66C79.5333 8.85304 79.1875 9.15397 78.94 9.53C78.6839 9.89761 78.5256 10.3243 78.48 10.77C78.48 11.23 78.41 12 78.41 13.1V14.96C78.41 16.08 78.41 16.87 78.48 17.31C78.5388 17.7588 78.7033 18.1872 78.96 18.56C79.2265 18.9372 79.5939 19.2318 80.02 19.41C80.4881 19.6075 80.992 19.7063 81.5 19.7C82.0225 19.7121 82.5413 19.6098 83.02 19.4C83.4281 19.2092 83.7745 18.9078 84.02 18.53C84.2765 18.1589 84.4347 17.7288 84.48 17.28C84.48 16.83 84.55 16.05 84.55 14.96V13.12C84.55 12 84.55 11.21 84.48 10.76C84.4336 10.3051 84.268 9.87048 84 9.5ZM81.88 16.39C81.8974 16.795 81.8706 17.2008 81.8 17.6C81.7833 17.6785 81.7385 17.7482 81.6741 17.796C81.6096 17.8439 81.53 17.8666 81.45 17.86C81.3769 17.8663 81.3039 17.8481 81.2423 17.8083C81.1807 17.7684 81.1342 17.7092 81.11 17.64C81.0375 17.2643 81.0007 16.8826 81 16.5V11.4C80.973 11.0627 81.0103 10.7234 81.11 10.4C81.1443 10.3466 81.1917 10.3029 81.2478 10.2731C81.3038 10.2434 81.3666 10.2285 81.43 10.23C81.5008 10.2218 81.5722 10.2381 81.6323 10.2764C81.6924 10.3146 81.7375 10.3724 81.76 10.44C81.8319 10.7682 81.8588 11.1046 81.84 11.44L81.88 16.39ZM191.11 25.5V25.4C191.641 25.2959 192.12 25.0107 192.465 24.5932C192.809 24.1756 192.999 23.6514 193 23.11C193.03 22.7381 192.966 22.3648 192.814 22.0241C192.662 21.6834 192.427 21.3863 192.13 21.16C191.226 20.6224 190.178 20.3779 189.13 20.46C188.222 20.462 187.315 20.539 186.42 20.69V30.08H188V26.08H189C189.241 26.0495 189.486 26.0686 189.719 26.1361C189.952 26.2037 190.169 26.3183 190.357 26.4728C190.544 26.6274 190.698 26.8187 190.808 27.0349C190.919 27.2511 190.984 27.4876 191 27.73C191.077 28.5614 191.297 29.3733 191.65 30.13H193.25C192.927 29.3931 192.722 28.6103 192.64 27.81C192.52 26.37 192 25.62 191.11 25.5ZM189.05 24.91H188V21.69C188.361 21.6391 188.725 21.6157 189.09 21.62C190.81 21.62 191.42 22.44 191.42 23.26C191.38 24.42 190.31 24.88 189.05 24.88V24.91ZM189.59 16.77C187.915 16.7621 186.275 17.2522 184.879 18.1781C183.483 19.104 182.394 20.4239 181.75 21.9701C181.106 23.5164 180.936 25.2192 181.261 26.8623C181.587 28.5055 182.393 30.0148 183.579 31.1985C184.764 32.3823 186.274 33.1871 187.918 33.5107C189.561 33.8343 191.264 33.6622 192.809 33.0161C194.355 32.3701 195.673 31.2793 196.597 29.8823C197.522 28.4852 198.01 26.845 198 25.17C197.995 22.9324 197.102 20.7882 195.518 19.2079C193.934 17.6275 191.788 16.74 189.55 16.74L189.59 16.77ZM189.59 32.36C188.667 32.3444 187.757 32.1465 186.911 31.7777C186.065 31.4089 185.3 30.8765 184.661 30.2111C184.021 29.5456 183.52 28.7603 183.185 27.9003C182.85 27.0403 182.689 26.1226 182.71 25.2C182.68 23.3519 183.383 21.5672 184.665 20.2352C185.946 18.9031 187.702 18.132 189.55 18.09C190.469 18.1095 191.376 18.3099 192.218 18.6798C193.059 19.0497 193.82 19.5819 194.456 20.2459C195.092 20.9098 195.591 21.6926 195.925 22.5496C196.259 23.4065 196.42 24.3207 196.4 25.24C196.423 26.1538 196.264 27.063 195.933 27.915C195.602 28.7671 195.106 29.5453 194.473 30.2045C193.84 30.8637 193.082 31.3909 192.244 31.7558C191.406 32.1206 190.504 32.3157 189.59 32.33V32.36ZM174.39 9.95L173.88 8.37L171.46 1.06H162.84L169.44 21.39V32.92H178.14V21.39L174.39 9.93V9.95ZM85.41 19.5H87.93V14.92H89.49V12.85H87.93V10.78H89.68V8.6H85.41V19.5ZM112.78 3.43C111.747 2.50133 110.477 1.87812 109.11 1.63C106.049 1.1697 102.953 0.988955 99.86 1.09H92.79V32.72H104.7C106.396 32.7579 108.092 32.6509 109.77 32.4C110.785 32.2293 111.75 31.8403 112.6 31.26C113.368 30.7121 113.931 29.9238 114.2 29.02C114.596 27.1475 114.751 25.2319 114.66 23.32V12.24C114.72 10.2349 114.616 8.22826 114.35 6.24C114.12 5.16729 113.573 4.18838 112.78 3.43ZM105.22 22.72C105.22 24.83 105.06 26.12 104.75 26.6C104.44 27.08 103.6 27.31 102.23 27.31V6.5C102.945 6.448 103.663 6.5433 104.34 6.78C104.52 6.86418 104.678 6.98802 104.802 7.14219C104.927 7.29636 105.015 7.47683 105.06 7.67C105.205 8.58236 105.259 9.50697 105.22 10.43V22.72ZM140.5 7.4H146.09V32.74H155.54V7.4H161.15V1.06H140.5V7.4ZM129.09 24.4C129.152 25.4068 129.067 26.4173 128.84 27.4C128.743 27.6164 128.579 27.7956 128.371 27.911C128.164 28.0263 127.925 28.0716 127.69 28.04C127.484 28.0588 127.277 28.013 127.098 27.9091C126.919 27.8053 126.776 27.6483 126.69 27.46C126.465 26.5992 126.381 25.7077 126.44 24.82V1.09H117V19.8C116.953 22.1356 117.026 24.472 117.22 26.8C117.396 27.972 117.898 29.0707 118.67 29.97C119.666 31.0966 120.942 31.9386 122.37 32.41C124.197 33.0692 126.129 33.3878 128.07 33.35C129.793 33.3866 131.51 33.1191 133.14 32.56C134.476 32.0962 135.668 31.2933 136.6 30.23C137.389 29.3917 137.935 28.3547 138.18 27.23C138.403 25.5564 138.493 23.8678 138.45 22.18V1.09H129.07L129.09 24.4Z" fill="white"/>
</svg>
